<?xml version="1.0" encoding="UTF-8"?>
<!DOCTYPE svg PUBLIC "-//W3C//DTD SVG 1.1//EN" "http://www.w3.org/Graphics/SVG/1.1/DTD/svg11.dtd">
<!-- Creator: CorelDRAW -->
<svg xmlns="http://www.w3.org/2000/svg" xml:space="preserve" width="5.911in" height="5.911in" version="1.1" style="shape-rendering:geometricPrecision; text-rendering:geometricPrecision; image-rendering:optimizeQuality; fill-rule:evenodd; clip-rule:evenodd"
viewBox="0 0 5911 5911"
 xmlns:xlink="http://www.w3.org/1999/xlink"
 xmlns:xodm="http://www.corel.com/coreldraw/odm/2003">
 <defs>
  <style type="text/css">
   <![CDATA[
    .str2 {stroke:#FEFEFE;stroke-width:138.89;stroke-miterlimit:2.61313}
    .str1 {stroke:#FEFEFE;stroke-width:6.94;stroke-miterlimit:2.61313}
    .str0 {stroke:#373435;stroke-width:6.94;stroke-miterlimit:2.61313}
    .fil3 {fill:none}
    .fil2 {fill:none;fill-rule:nonzero}
    .fil0 {fill:#373435}
    .fil1 {fill:#FEFEFE;fill-rule:nonzero}
   ]]>
  </style>
 </defs>
 <g id="Layer_x0020_1">
  <metadata id="CorelCorpID_0Corel-Layer"/>
  <circle class="fil0 str0" cx="2955.5" cy="2955.5" r="2751.89"/>
  <circle class="fil0 str0" cx="2955.5" cy="2955.5" r="2150.1"/>
  <g>
   <path id="acaca.svg" class="fil1" d="M4020.09 2955.56c135.86,-16.22 252.21,-42.31 323.43,-83.33 190.39,-111.53 307.44,-315.9 307.44,-536.5 0,-343.41 -278.53,-621.94 -621.94,-621.94 -107.77,0 -213.78,27.97 -307.33,81.21 -71.22,41.02 -152.07,128.69 -233.87,238.46 54.06,-125.75 89.56,-239.63 89.56,-321.67 0,-343.41 -278.53,-621.94 -621.94,-621.94 -343.29,0 -621.82,278.53 -621.82,621.94 0,82.15 35.49,195.91 89.56,321.78 -81.8,-109.77 -162.65,-197.44 -233.87,-238.46 -93.55,-53.36 -199.56,-81.33 -307.33,-81.33 -343.41,0 -621.94,278.53 -621.94,621.94 0,220.59 117.06,424.97 307.33,536.5 71.22,41.02 187.45,67.22 323.43,83.33 -135.86,16.22 -252.2,42.31 -323.43,83.32 -194.27,110.24 -314.5,316.85 -314.5,540.5 0,343.41 278.53,621.94 621.94,621.94 110.59,0 219.19,-29.5 314.61,-85.44 71.22,-41.02 152.07,-128.69 233.87,-238.46 -54.3,125.99 -89.79,239.87 -89.79,321.9 0.12,343.29 278.65,621.82 621.94,621.82 343.41,0 621.94,-278.53 621.94,-621.94 0,-82.15 -35.49,-195.91 -89.56,-321.78 81.8,109.77 162.65,197.44 233.87,238.46 95.31,55.94 203.91,85.44 314.5,85.44 343.41,0 621.94,-278.53 621.94,-621.94 0,-223.65 -120.23,-430.26 -314.61,-540.73 -71.22,-41.02 -187.45,-67.22 -323.43,-83.33l0 0.24zm-753.68 -1243.76c-3.41,21.39 -8.23,42.9 -13.99,63.81 -12.22,41.37 -31.26,91.55 -56.88,150.43 -58.76,129.63 -125.87,257.96 -198.03,380.43l-42.07 71.34 -41.96 -71.57c-72.16,-122.22 -139.27,-250.56 -197.91,-380.31 -21.98,-48.77 -41.25,-99.31 -56.88,-150.55 -5.87,-20.69 -10.69,-42.19 -14.22,-63.58 0.11,-171.7 139.38,-310.97 310.97,-310.97 171.7,0 310.97,139.27 310.97,310.97l0 0zm-1657.33 466.34c55.59,-96.14 158.3,-155.48 269.37,-155.48 54.53,0 108.24,14.33 155.48,41.6 16.92,13.87 33.26,28.79 48.54,44.31 29.26,31.02 63,72.51 101.19,124.34 76.16,103.54 156.07,232.23 230.7,361.62l40.43 72.16 -82.39 0.59c-12.57,0.24 -25.97,0.24 -38.78,0.24 -129.74,0 -261.02,-6.46 -389.83,-18.8 -53.35,-5.17 -106.36,-13.87 -158.66,-25.86 -20.92,-5.41 -41.96,-12.22 -62.29,-19.98 -96.02,-55.47 -155.37,-158.19 -155.37,-269.25 0,-54.53 14.33,-108.24 41.6,-155.48l0 0zm424.73 1668.61c-46.78,26.56 -99.78,40.55 -153.6,40.55 -171.7,0 -310.97,-139.27 -310.97,-310.97 0,-110.36 58.53,-212.48 153.72,-268.31l14.57 -6.23c11.4,-4 27.15,-8.58 47.48,-13.51 41.84,-9.99 94.72,-18.57 158.54,-25.86 129.04,-12.46 260.32,-18.92 390.06,-18.92 12.81,0 26.21,0 39.02,0 27.85,0.24 55.35,0.47 82.5,0.94l-40.78 72.16c-74.63,129.39 -154.54,258.08 -230.7,361.62 -31.03,43.48 -64.99,85.09 -101.54,124.22 -15.28,15.63 -31.38,30.44 -48.19,44.19l-0.12 0.12zm1232.59 352.57c0,171.58 -139.27,310.85 -310.97,310.85 -171.59,0 -310.85,-139.27 -310.85,-310.97 3.41,-21.51 8.23,-42.9 13.99,-63.93 11.98,-41.02 30.91,-91.08 56.76,-150.2 51.59,-117.52 123.17,-251.27 198.03,-380.31l42.07 -71.46 41.95 71.57c74.98,129.04 146.2,262.78 198.03,380.31 25.74,59 44.78,109.18 57,150.43 6.35,20.69 11.17,42.07 14.11,63.58l-0.12 0.12zm1035.39 -2021.18c27.39,47.24 41.72,100.95 41.72,155.48 0,111.06 -59.35,213.78 -155.49,269.25 -20.21,7.76 -41.25,14.57 -62.17,19.98 -41.84,9.99 -94.72,18.57 -158.54,25.86 -128.1,13.98 -279.24,18.92 -428.85,18.69 -27.97,0 -55.59,-0.24 -82.74,-0.7l40.78 -72.16c74.63,-129.39 154.55,-258.08 230.7,-361.62 31.15,-43.6 65.11,-85.2 101.66,-124.34 14.57,-15.4 26.33,-26.8 35.49,-34.2l12.69 -9.99c47.24,-27.39 100.95,-41.72 155.48,-41.72 111.06,0 213.78,59.35 269.25,155.48l0 0zm-424.73 1668.61c-16.8,-13.87 -33.02,-28.56 -48.19,-43.95 -36.55,-39.25 -70.51,-80.86 -101.66,-124.46 -82.74,-115.88 -160.77,-237.75 -230.82,-362.21l-40.43 -72.16 82.38 -0.59c149.26,-0.35 300.74,4.7 428.85,18.69 63.93,7.28 116.82,15.98 158.66,25.85 20.33,5.06 36.2,9.64 47.6,13.75l14.93 6.23c97.19,55.12 157.25,158.42 157.25,270.19 0,171.7 -139.27,310.97 -310.97,310.97 -55.24,0 -109.65,-14.81 -157.25,-42.66l-0.35 0.35zm-921.62 -580.22c-171.59,-0.12 -310.85,-139.38 -310.85,-310.97 0,-171.7 139.27,-310.97 310.85,-310.97 171.7,0 310.97,139.26 310.97,310.97 0,171.59 -139.27,310.85 -310.97,310.85l0 0.12zm0 0l0 0 0 0z"/>
   <path id="_1" class="fil2 str1" d="M4020.09 2955.56c135.86,-16.22 252.21,-42.31 323.43,-83.33 190.39,-111.53 307.44,-315.9 307.44,-536.5 0,-343.41 -278.53,-621.94 -621.94,-621.94 -107.77,0 -213.78,27.97 -307.33,81.21 -71.22,41.02 -152.07,128.69 -233.87,238.46 54.06,-125.75 89.56,-239.63 89.56,-321.67 0,-343.41 -278.53,-621.94 -621.94,-621.94 -343.29,0 -621.82,278.53 -621.82,621.94 0,82.15 35.49,195.91 89.56,321.78 -81.8,-109.77 -162.65,-197.44 -233.87,-238.46 -93.55,-53.36 -199.56,-81.33 -307.33,-81.33 -343.41,0 -621.94,278.53 -621.94,621.94 0,220.59 117.06,424.97 307.33,536.5 71.22,41.02 187.45,67.22 323.43,83.33 -135.86,16.22 -252.2,42.31 -323.43,83.32 -194.27,110.24 -314.5,316.85 -314.5,540.5 0,343.41 278.53,621.94 621.94,621.94 110.59,0 219.19,-29.5 314.61,-85.44 71.22,-41.02 152.07,-128.69 233.87,-238.46 -54.3,125.99 -89.79,239.87 -89.79,321.9 0.12,343.29 278.65,621.82 621.94,621.82 343.41,0 621.94,-278.53 621.94,-621.94 0,-82.15 -35.49,-195.91 -89.56,-321.78 81.8,109.77 162.65,197.44 233.87,238.46 95.31,55.94 203.91,85.44 314.5,85.44 343.41,0 621.94,-278.53 621.94,-621.94 0,-223.65 -120.23,-430.26 -314.61,-540.73 -71.22,-41.02 -187.45,-67.22 -323.43,-83.33m-753.68 -1243.52c-3.41,21.39 -8.23,42.9 -13.99,63.81 -12.22,41.37 -31.26,91.55 -56.88,150.43 -58.76,129.63 -125.87,257.96 -198.03,380.43l-42.07 71.34 -41.96 -71.57c-72.16,-122.22 -139.27,-250.56 -197.91,-380.31 -21.98,-48.77 -41.25,-99.31 -56.88,-150.55 -5.87,-20.69 -10.69,-42.19 -14.22,-63.58 0.11,-171.7 139.38,-310.97 310.97,-310.97 171.7,0 310.97,139.27 310.97,310.97m-1657.33 466.34c55.59,-96.14 158.3,-155.48 269.37,-155.48 54.53,0 108.24,14.33 155.48,41.6 16.92,13.87 33.26,28.79 48.54,44.31 29.26,31.02 63,72.51 101.19,124.34 76.16,103.54 156.07,232.23 230.7,361.62l40.43 72.16 -82.39 0.59c-12.57,0.24 -25.97,0.24 -38.78,0.24 -129.74,0 -261.02,-6.46 -389.83,-18.8 -53.35,-5.17 -106.36,-13.87 -158.66,-25.86 -20.92,-5.41 -41.96,-12.22 -62.29,-19.98 -96.02,-55.47 -155.37,-158.19 -155.37,-269.25 0,-54.53 14.33,-108.24 41.6,-155.48m424.73 1668.61c-46.78,26.56 -99.78,40.55 -153.6,40.55 -171.7,0 -310.97,-139.27 -310.97,-310.97 0,-110.36 58.53,-212.48 153.72,-268.31l14.57 -6.23c11.4,-4 27.15,-8.58 47.48,-13.51 41.84,-9.99 94.72,-18.57 158.54,-25.86 129.04,-12.46 260.32,-18.92 390.06,-18.92 12.81,0 26.21,0 39.02,0 27.85,0.24 55.35,0.47 82.5,0.94l-40.78 72.16c-74.63,129.39 -154.54,258.08 -230.7,361.62 -31.03,43.48 -64.99,85.09 -101.54,124.22 -15.28,15.63 -31.38,30.44 -48.19,44.19m1232.48 352.69c0,171.58 -139.27,310.85 -310.97,310.85 -171.59,0 -310.85,-139.27 -310.85,-310.97 3.41,-21.51 8.23,-42.9 13.99,-63.93 11.98,-41.02 30.91,-91.08 56.76,-150.2 51.59,-117.52 123.17,-251.27 198.03,-380.31l42.07 -71.46 41.95 71.57c74.98,129.04 146.2,262.78 198.03,380.31 25.74,59 44.78,109.18 57,150.43 6.35,20.69 11.17,42.07 14.11,63.58m1035.27 -2021.06c27.39,47.24 41.72,100.95 41.72,155.48 0,111.06 -59.35,213.78 -155.49,269.25 -20.21,7.76 -41.25,14.57 -62.17,19.98 -41.84,9.99 -94.72,18.57 -158.54,25.86 -128.1,13.98 -279.24,18.92 -428.85,18.69 -27.97,0 -55.59,-0.24 -82.74,-0.7l40.78 -72.16c74.63,-129.39 154.55,-258.08 230.7,-361.62 31.15,-43.6 65.11,-85.2 101.66,-124.34 14.57,-15.4 26.33,-26.8 35.49,-34.2l12.69 -9.99c47.24,-27.39 100.95,-41.72 155.48,-41.72 111.06,0 213.78,59.35 269.25,155.48m-424.73 1668.61c-16.8,-13.87 -33.02,-28.56 -48.19,-43.95 -36.55,-39.25 -70.51,-80.86 -101.66,-124.46 -82.74,-115.88 -160.77,-237.75 -230.82,-362.21l-40.43 -72.16 82.38 -0.59c149.26,-0.35 300.74,4.7 428.85,18.69 63.93,7.28 116.82,15.98 158.66,25.85 20.33,5.06 36.2,9.64 47.6,13.75l14.93 6.23c97.19,55.12 157.25,158.42 157.25,270.19 0,171.7 -139.27,310.97 -310.97,310.97 -55.24,0 -109.65,-14.81 -157.25,-42.66l-0.35 0.35zm-921.62 -580.22c-171.59,-0.12 -310.85,-139.38 -310.85,-310.97 0,-171.7 139.27,-310.97 310.85,-310.97 171.7,0 310.97,139.26 310.97,310.97 0,171.59 -139.27,310.85 -310.97,310.85m0 0.12l0 0 0 0z"/>
  </g>
  <circle class="fil3 str2" cx="2955.5" cy="2955.5" r="2370.63"/>
 </g>
</svg>
